<mxfile host="app.diagrams.net" modified="2022-04-28T05:17:26.890Z" agent="5.0 (Macintosh; Intel Mac OS X 10_15_7) AppleWebKit/537.36 (KHTML, like Gecko) Chrome/100.0.4896.127 Safari/537.36" etag="Kg00-is_YrR0_o3vahXB" version="17.4.6" type="github">
  <diagram id="UI2iOiPr4V19X3XzI3Mj" name="第 1 页">
    <mxGraphModel dx="1033" dy="707" grid="1" gridSize="10" guides="1" tooltips="1" connect="1" arrows="0" fold="1" page="1" pageScale="1" pageWidth="827" pageHeight="1169" math="0" shadow="0">
      <root>
        <mxCell id="0" />
        <mxCell id="1" parent="0" />
        <mxCell id="G-l2HLrUvlXIaTjd2F_r-11" value="&lt;font style=&quot;font-size: 28px&quot;&gt;1GB&lt;/font&gt;" style="rounded=0;whiteSpace=wrap;html=1;sketch=1;" vertex="1" parent="1">
          <mxGeometry x="610" y="190" width="190" height="90" as="geometry" />
        </mxCell>
        <mxCell id="G-l2HLrUvlXIaTjd2F_r-12" value="&lt;font style=&quot;font-size: 28px&quot;&gt;1GB&lt;/font&gt;" style="rounded=0;whiteSpace=wrap;html=1;sketch=1;" vertex="1" parent="1">
          <mxGeometry x="610" y="280" width="190" height="90" as="geometry" />
        </mxCell>
        <mxCell id="G-l2HLrUvlXIaTjd2F_r-13" value="&lt;font style=&quot;font-size: 28px&quot;&gt;1GB&lt;/font&gt;" style="rounded=0;whiteSpace=wrap;html=1;sketch=1;" vertex="1" parent="1">
          <mxGeometry x="610" y="370" width="190" height="90" as="geometry" />
        </mxCell>
        <mxCell id="G-l2HLrUvlXIaTjd2F_r-25" value="" style="group;sketch=1;" vertex="1" connectable="0" parent="1">
          <mxGeometry x="10" y="200" width="760" height="310" as="geometry" />
        </mxCell>
        <mxCell id="G-l2HLrUvlXIaTjd2F_r-3" value="&lt;font style=&quot;font-size: 28px&quot;&gt;1GB&lt;/font&gt;" style="rounded=0;whiteSpace=wrap;html=1;sketch=1;" vertex="1" parent="G-l2HLrUvlXIaTjd2F_r-25">
          <mxGeometry width="190" height="90" as="geometry" />
        </mxCell>
        <mxCell id="G-l2HLrUvlXIaTjd2F_r-4" value="&lt;span style=&quot;font-size: 28px&quot;&gt;1GB&lt;/span&gt;" style="rounded=0;whiteSpace=wrap;html=1;sketch=1;" vertex="1" parent="G-l2HLrUvlXIaTjd2F_r-25">
          <mxGeometry y="90" width="190" height="90" as="geometry" />
        </mxCell>
        <mxCell id="G-l2HLrUvlXIaTjd2F_r-5" value="&lt;span style=&quot;font-size: 28px&quot;&gt;1GB&lt;/span&gt;" style="rounded=0;whiteSpace=wrap;html=1;sketch=1;" vertex="1" parent="G-l2HLrUvlXIaTjd2F_r-25">
          <mxGeometry y="180" width="190" height="90" as="geometry" />
        </mxCell>
        <mxCell id="G-l2HLrUvlXIaTjd2F_r-7" value="&lt;font style=&quot;font-size: 28px&quot;&gt;1GB&lt;/font&gt;" style="rounded=0;whiteSpace=wrap;html=1;sketch=1;" vertex="1" parent="G-l2HLrUvlXIaTjd2F_r-25">
          <mxGeometry x="309" y="90" width="190" height="90" as="geometry" />
        </mxCell>
        <mxCell id="G-l2HLrUvlXIaTjd2F_r-9" value="RAM" style="text;strokeColor=none;fillColor=none;html=1;fontSize=24;fontStyle=1;verticalAlign=middle;align=center;sketch=1;rounded=0;" vertex="1" parent="G-l2HLrUvlXIaTjd2F_r-25">
          <mxGeometry x="354" y="180" width="100" height="40" as="geometry" />
        </mxCell>
        <mxCell id="G-l2HLrUvlXIaTjd2F_r-10" value="Disk" style="text;strokeColor=none;fillColor=none;html=1;fontSize=24;fontStyle=1;verticalAlign=middle;align=center;sketch=1;rounded=0;" vertex="1" parent="G-l2HLrUvlXIaTjd2F_r-25">
          <mxGeometry x="45" y="270" width="100" height="40" as="geometry" />
        </mxCell>
        <mxCell id="G-l2HLrUvlXIaTjd2F_r-14" value="Disk" style="text;strokeColor=none;fillColor=none;html=1;fontSize=24;fontStyle=1;verticalAlign=middle;align=center;sketch=1;rounded=0;" vertex="1" parent="G-l2HLrUvlXIaTjd2F_r-25">
          <mxGeometry x="660" y="260" width="100" height="40" as="geometry" />
        </mxCell>
        <mxCell id="G-l2HLrUvlXIaTjd2F_r-15" value="" style="endArrow=classic;html=1;sketch=1;entryX=0;entryY=0.5;entryDx=0;entryDy=0;exitX=1;exitY=0.5;exitDx=0;exitDy=0;" edge="1" parent="G-l2HLrUvlXIaTjd2F_r-25" source="G-l2HLrUvlXIaTjd2F_r-3" target="G-l2HLrUvlXIaTjd2F_r-7">
          <mxGeometry width="50" height="50" relative="1" as="geometry">
            <mxPoint x="190" y="80" as="sourcePoint" />
            <mxPoint x="240" y="30" as="targetPoint" />
          </mxGeometry>
        </mxCell>
        <mxCell id="G-l2HLrUvlXIaTjd2F_r-17" style="edgeStyle=orthogonalEdgeStyle;sketch=1;orthogonalLoop=1;jettySize=auto;html=1;exitX=1;exitY=0.5;exitDx=0;exitDy=0;entryX=0;entryY=0.5;entryDx=0;entryDy=0;" edge="1" parent="G-l2HLrUvlXIaTjd2F_r-25" source="G-l2HLrUvlXIaTjd2F_r-4" target="G-l2HLrUvlXIaTjd2F_r-7">
          <mxGeometry relative="1" as="geometry" />
        </mxCell>
        <mxCell id="G-l2HLrUvlXIaTjd2F_r-20" value="" style="endArrow=classic;html=1;sketch=1;entryX=0;entryY=0.5;entryDx=0;entryDy=0;exitX=1;exitY=0.5;exitDx=0;exitDy=0;" edge="1" parent="G-l2HLrUvlXIaTjd2F_r-25" source="G-l2HLrUvlXIaTjd2F_r-5" target="G-l2HLrUvlXIaTjd2F_r-7">
          <mxGeometry width="50" height="50" relative="1" as="geometry">
            <mxPoint x="190" y="250" as="sourcePoint" />
            <mxPoint x="240" y="200" as="targetPoint" />
          </mxGeometry>
        </mxCell>
        <mxCell id="G-l2HLrUvlXIaTjd2F_r-21" value="" style="endArrow=classic;html=1;sketch=1;exitX=1;exitY=0.5;exitDx=0;exitDy=0;entryX=0;entryY=0.5;entryDx=0;entryDy=0;" edge="1" parent="G-l2HLrUvlXIaTjd2F_r-25" source="G-l2HLrUvlXIaTjd2F_r-7" target="G-l2HLrUvlXIaTjd2F_r-11">
          <mxGeometry width="50" height="50" relative="1" as="geometry">
            <mxPoint x="500" y="160" as="sourcePoint" />
            <mxPoint x="550" y="110" as="targetPoint" />
          </mxGeometry>
        </mxCell>
        <mxCell id="G-l2HLrUvlXIaTjd2F_r-23" value="" style="endArrow=classic;html=1;sketch=1;entryX=0;entryY=0.591;entryDx=0;entryDy=0;entryPerimeter=0;" edge="1" parent="G-l2HLrUvlXIaTjd2F_r-25" target="G-l2HLrUvlXIaTjd2F_r-12">
          <mxGeometry width="50" height="50" relative="1" as="geometry">
            <mxPoint x="500" y="133" as="sourcePoint" />
            <mxPoint x="550" y="130" as="targetPoint" />
          </mxGeometry>
        </mxCell>
        <mxCell id="G-l2HLrUvlXIaTjd2F_r-24" value="" style="endArrow=classic;html=1;sketch=1;entryX=0;entryY=0.5;entryDx=0;entryDy=0;exitX=1;exitY=0.5;exitDx=0;exitDy=0;" edge="1" parent="G-l2HLrUvlXIaTjd2F_r-25" source="G-l2HLrUvlXIaTjd2F_r-7" target="G-l2HLrUvlXIaTjd2F_r-13">
          <mxGeometry width="50" height="50" relative="1" as="geometry">
            <mxPoint x="499" y="185" as="sourcePoint" />
            <mxPoint x="569.7106781186548" y="135" as="targetPoint" />
          </mxGeometry>
        </mxCell>
      </root>
    </mxGraphModel>
  </diagram>
</mxfile>
